<svg xmlns="http://www.w3.org/2000/svg" viewBox="0 0 452.32 141.19"><defs><style>.cls-1{fill:#0092e5;stroke:#0092e5;stroke-miterlimit:10;stroke-width:3px;}.cls-2{fill:#fff;}</style></defs><title>Recurso 4</title><g id="Capa_2" data-name="Capa 2"><g id="Capa_1-2" data-name="Capa 1"><path class="cls-1" d="M26.78,139.69A25,25,0,0,1,15.5,137h0a25.29,25.29,0,0,1-11.31-34L48,15.53A25.3,25.3,0,1,1,93.24,38.17L49.45,125.71A25.33,25.33,0,0,1,26.78,139.69Zm-9.94-5.35a22.34,22.34,0,0,0,29.93-10L90.56,36.83a22.31,22.31,0,0,0-39.9-20L6.87,104.41a22.32,22.32,0,0,0,10,29.93l-.67,1.34Z"/><path class="cls-1" d="M167.93,139.17a25.31,25.31,0,1,1,25.31-25.3A25.33,25.33,0,0,1,167.93,139.17Zm0-47.61a22.31,22.31,0,1,0,22.31,22.31A22.33,22.33,0,0,0,167.93,91.56Z"/><path class="cls-1" d="M98.28,139.66A25.33,25.33,0,0,1,75.68,103l43.79-87.54a25.3,25.3,0,0,1,45.26,22.64l-43.79,87.54a25.36,25.36,0,0,1-22.66,14ZM142.13,4.5a22.33,22.33,0,0,0-20,12.32L78.36,104.36a22.33,22.33,0,0,0,10,29.93,22.32,22.32,0,0,0,29.93-10l43.79-87.54A22.29,22.29,0,0,0,142.13,4.5Z"/><path class="cls-2" d="M243.43,33.07,239.12,16V34.5a3.41,3.41,0,0,1-.68,2.31,2.52,2.52,0,0,1-3.62,0,3.32,3.32,0,0,1-.7-2.32V13.24a2.65,2.65,0,0,1,.92-2.37,4.36,4.36,0,0,1,2.47-.62h1.69a6.27,6.27,0,0,1,2.21.28,1.85,1.85,0,0,1,1,1,15.06,15.06,0,0,1,.75,2.32l3.91,14.72L251,13.84a15.06,15.06,0,0,1,.75-2.32,1.83,1.83,0,0,1,1-1,6.27,6.27,0,0,1,2.21-.28h1.69a4.38,4.38,0,0,1,2.47.62,2.65,2.65,0,0,1,.92,2.37V34.5a3.36,3.36,0,0,1-.69,2.31,2.36,2.36,0,0,1-1.84.77,2.3,2.3,0,0,1-1.78-.77,3.36,3.36,0,0,1-.7-2.31V16l-4.3,17.12c-.29,1.11-.51,1.93-.69,2.45a3.47,3.47,0,0,1-1,1.42,2.91,2.91,0,0,1-2,.64,2.89,2.89,0,0,1-2.64-1.47,5.64,5.64,0,0,1-.58-1.42Z"/><path class="cls-2" d="M268.6,37.58a2.91,2.91,0,0,1-2-.73,2.62,2.62,0,0,1-.82-2.06,2.64,2.64,0,0,1,.79-1.92,2.59,2.59,0,0,1,1.94-.81,2.72,2.72,0,0,1,2,.8,2.62,2.62,0,0,1,.82,1.93,2.66,2.66,0,0,1-.82,2.05A2.76,2.76,0,0,1,268.6,37.58Z"/><path class="cls-2" d="M277.59,34.26V13.09a3.56,3.56,0,0,1,.76-2.47,2.5,2.5,0,0,1,1.94-.83,2.58,2.58,0,0,1,2,.82,3.55,3.55,0,0,1,.76,2.48V34.26a3.6,3.6,0,0,1-.76,2.49,2.59,2.59,0,0,1-2,.83,2.48,2.48,0,0,1-1.93-.84A3.54,3.54,0,0,1,277.59,34.26Z"/><path class="cls-2" d="M306.32,34.08,305,30.71H294.11l-1.28,3.44a12,12,0,0,1-1.29,2.72,2,2,0,0,1-1.74.71,2.54,2.54,0,0,1-1.81-.75,2.29,2.29,0,0,1-.79-1.71,3.85,3.85,0,0,1,.18-1.13c.12-.39.33-.94.61-1.64l6.87-17.44c.2-.5.43-1.11.71-1.81a8.63,8.63,0,0,1,.88-1.75,3.68,3.68,0,0,1,1.22-1.13,4.37,4.37,0,0,1,3.78,0,3.67,3.67,0,0,1,1.23,1.11,8.19,8.19,0,0,1,.79,1.46c.21.52.48,1.21.81,2.08l7,17.34a8.76,8.76,0,0,1,.83,2.88,2.38,2.38,0,0,1-.78,1.71,2.57,2.57,0,0,1-1.88.78,2.45,2.45,0,0,1-1.1-.23,2.22,2.22,0,0,1-.77-.62,6,6,0,0,1-.67-1.21C306.69,35,306.49,34.49,306.32,34.08Zm-10.78-7.46h8l-4.05-11.09Z"/><path class="cls-2" d="M319.09,37.58a2.89,2.89,0,0,1-2-.73,2.62,2.62,0,0,1-.83-2.06,2.68,2.68,0,0,1,.79-1.92,2.62,2.62,0,0,1,1.94-.81,2.74,2.74,0,0,1,2,.8,2.61,2.61,0,0,1,.81,1.93,2.65,2.65,0,0,1-.81,2.05A2.8,2.8,0,0,1,319.09,37.58Z"/><path class="cls-2" d="M237.73,55.29h7.09a19.2,19.2,0,0,1,4.75.52,8.66,8.66,0,0,1,3.59,1.92q4.2,3.6,4.2,10.93a21.45,21.45,0,0,1-.42,4.41,13.12,13.12,0,0,1-1.3,3.6,11.15,11.15,0,0,1-2.26,2.87A9.3,9.3,0,0,1,251,81.1a10.91,10.91,0,0,1-2.76.83,22.13,22.13,0,0,1-3.33.23h-7.09a4.47,4.47,0,0,1-2.24-.45,2.09,2.09,0,0,1-1-1.26,8.2,8.2,0,0,1-.22-2.12V58.63a2.85,2.85,0,0,1,3.33-3.34Zm2.11,4.31V77.84H244c.91,0,1.62,0,2.13-.07a7,7,0,0,0,1.59-.37,4.3,4.3,0,0,0,1.43-.83q2.73-2.31,2.73-7.95a11.74,11.74,0,0,0-1.2-6,5.32,5.32,0,0,0-3-2.52,14.6,14.6,0,0,0-4.25-.54Z"/><path class="cls-2" d="M262.36,79.3V58.14a3.54,3.54,0,0,1,.76-2.48,2.49,2.49,0,0,1,1.94-.82,2.61,2.61,0,0,1,2,.81,3.58,3.58,0,0,1,.76,2.49V79.3a3.61,3.61,0,0,1-.76,2.5,2.58,2.58,0,0,1-2,.82,2.54,2.54,0,0,1-1.94-.83A3.63,3.63,0,0,1,262.36,79.3Z"/><path class="cls-2" d="M298.43,71.24v5.15a5.26,5.26,0,0,1-.2,1.64,2.56,2.56,0,0,1-.74,1.11,6.77,6.77,0,0,1-1.38,1,22.14,22.14,0,0,1-4.7,1.93,19,19,0,0,1-4.91.6,16.12,16.12,0,0,1-5.64-1,12,12,0,0,1-4.35-2.77,12.39,12.39,0,0,1-2.76-4.4,16.47,16.47,0,0,1-1-5.77,16.74,16.74,0,0,1,.94-5.74,11.67,11.67,0,0,1,2.75-4.41,12.07,12.07,0,0,1,4.41-2.78,17,17,0,0,1,5.91-1,14.77,14.77,0,0,1,4.8.72A10.63,10.63,0,0,1,295,57.38a8.17,8.17,0,0,1,2,2.33,4.75,4.75,0,0,1,.66,2.18,2.3,2.3,0,0,1-.76,1.75,2.54,2.54,0,0,1-1.83.73,2.35,2.35,0,0,1-1.12-.28,2.5,2.5,0,0,1-.91-.77,22.31,22.31,0,0,0-1.7-2.38,5.56,5.56,0,0,0-1.88-1.36,7.31,7.31,0,0,0-3-.55,8.37,8.37,0,0,0-3.37.65,7.08,7.08,0,0,0-2.54,1.89,8.6,8.6,0,0,0-1.61,3,13.48,13.48,0,0,0-.56,4q0,4.73,2.17,7.28a7.54,7.54,0,0,0,6.06,2.55,12.38,12.38,0,0,0,3.55-.5,18.26,18.26,0,0,0,3.36-1.41V72.14h-4.22a4.58,4.58,0,0,1-2.3-.46,1.67,1.67,0,0,1-.78-1.56,1.91,1.91,0,0,1,.65-1.48,2.57,2.57,0,0,1,1.77-.59h6.18a8,8,0,0,1,1.92.2,2.24,2.24,0,0,1,1.28.9A3.71,3.71,0,0,1,298.43,71.24Z"/><path class="cls-2" d="M303.84,79.3V58.14a3.59,3.59,0,0,1,.75-2.48,2.51,2.51,0,0,1,2-.82,2.59,2.59,0,0,1,2,.81,3.53,3.53,0,0,1,.76,2.49V79.3a3.56,3.56,0,0,1-.76,2.5,2.56,2.56,0,0,1-2,.82,2.53,2.53,0,0,1-1.94-.83A3.58,3.58,0,0,1,303.84,79.3Z"/><path class="cls-2" d="M332.82,59.78h-5.94V79.3a3.62,3.62,0,0,1-.75,2.51,2.54,2.54,0,0,1-1.95.81,2.57,2.57,0,0,1-2-.82,3.61,3.61,0,0,1-.76-2.5V59.78h-5.93a3,3,0,0,1-2.08-.61,2.08,2.08,0,0,1-.67-1.62,2,2,0,0,1,.7-1.65,3.08,3.08,0,0,1,2-.61h17.3a3,3,0,0,1,2.1.63,2.11,2.11,0,0,1,.68,1.63,2.07,2.07,0,0,1-.69,1.62A3.09,3.09,0,0,1,332.82,59.78Z"/><path class="cls-2" d="M353.66,79.12l-1.29-3.37H341.45l-1.28,3.44a11.69,11.69,0,0,1-1.29,2.73,2,2,0,0,1-1.74.7,2.54,2.54,0,0,1-1.81-.75,2.28,2.28,0,0,1-.79-1.7,3.87,3.87,0,0,1,.18-1.14c.13-.39.33-.93.61-1.63L342.2,60l.71-1.81a8.63,8.63,0,0,1,.88-1.75A3.49,3.49,0,0,1,345,55.27a3.7,3.7,0,0,1,1.87-.43,3.79,3.79,0,0,1,1.9.43A3.47,3.47,0,0,1,350,56.38a8.1,8.1,0,0,1,.79,1.45c.21.52.48,1.22.81,2.08l7,17.34a8.76,8.76,0,0,1,.83,2.88,2.38,2.38,0,0,1-.78,1.71,2.57,2.57,0,0,1-1.88.78,2.35,2.35,0,0,1-1.1-.23,2.22,2.22,0,0,1-.77-.62,5.74,5.74,0,0,1-.67-1.21C354,80,353.83,79.54,353.66,79.12Zm-10.78-7.46h8l-4.05-11.09Z"/><path class="cls-2" d="M368.8,58.14V77.69h11a2.93,2.93,0,0,1,2,.64,2.11,2.11,0,0,1,.71,1.62,2,2,0,0,1-.7,1.6,3,3,0,0,1-2,.61H366.69a2.84,2.84,0,0,1-3.34-3.33V58.14a3.59,3.59,0,0,1,.75-2.48,2.48,2.48,0,0,1,1.95-.82,2.61,2.61,0,0,1,2,.81A3.58,3.58,0,0,1,368.8,58.14Z"/><path class="cls-2" d="M254.78,119.14a7.85,7.85,0,0,1-1.26,4.38,8.39,8.39,0,0,1-3.67,3,13.86,13.86,0,0,1-5.74,1.1,12.92,12.92,0,0,1-6.56-1.51,8.74,8.74,0,0,1-3-2.88,6.63,6.63,0,0,1-1.15-3.51,2.37,2.37,0,0,1,2.44-2.4,2.06,2.06,0,0,1,1.46.55,4.35,4.35,0,0,1,1,1.63,11.17,11.17,0,0,0,1.1,2.14,4.46,4.46,0,0,0,1.68,1.42,6.23,6.23,0,0,0,2.84.56,6.39,6.39,0,0,0,3.93-1.13,3.39,3.39,0,0,0,1.52-2.81,3,3,0,0,0-.82-2.17,5.29,5.29,0,0,0-2.11-1.28q-1.29-.44-3.45-.93a24.84,24.84,0,0,1-4.85-1.59,7.89,7.89,0,0,1-3.1-2.47,6.45,6.45,0,0,1-1.14-3.9,6.68,6.68,0,0,1,1.21-3.94,7.57,7.57,0,0,1,3.5-2.64,14.24,14.24,0,0,1,5.39-.93,13.34,13.34,0,0,1,4.28.61,9,9,0,0,1,3,1.64,6.6,6.6,0,0,1,1.74,2.13,4.89,4.89,0,0,1,.55,2.18,2.61,2.61,0,0,1-.68,1.75,2.2,2.2,0,0,1-1.72.78,2,2,0,0,1-1.42-.47,6.38,6.38,0,0,1-1.05-1.53A7.05,7.05,0,0,0,247,104.6a5.16,5.16,0,0,0-3.3-.85,5.75,5.75,0,0,0-3.4.92A2.7,2.7,0,0,0,239,106.9a2.2,2.2,0,0,0,.44,1.39,3.61,3.61,0,0,0,1.21,1,8.29,8.29,0,0,0,1.55.66c.53.16,1.4.39,2.61.7a39.58,39.58,0,0,1,4.11,1.17,12.78,12.78,0,0,1,3.14,1.56,6.33,6.33,0,0,1,2,2.32A7.31,7.31,0,0,1,254.78,119.14Z"/><path class="cls-2" d="M271.22,99.88a14.25,14.25,0,0,1,7.17,1.7,11,11,0,0,1,4.54,4.82,16.5,16.5,0,0,1,1.54,7.34,17.74,17.74,0,0,1-.85,5.66,12.29,12.29,0,0,1-2.52,4.42,11.18,11.18,0,0,1-4.15,2.86,16.3,16.3,0,0,1-11.27,0,11.27,11.27,0,0,1-4.16-2.87,12.3,12.3,0,0,1-2.52-4.45,18,18,0,0,1-.85-5.63A17.18,17.18,0,0,1,259,108a12.15,12.15,0,0,1,2.57-4.4,11.21,11.21,0,0,1,4.11-2.78A14.78,14.78,0,0,1,271.22,99.88ZM279,113.7a12.66,12.66,0,0,0-.95-5.11,7.18,7.18,0,0,0-2.72-3.28,7.49,7.49,0,0,0-4.06-1.1,7.34,7.34,0,0,0-3,.61,6.51,6.51,0,0,0-2.38,1.79,8.56,8.56,0,0,0-1.58,3,13.77,13.77,0,0,0-.57,4.1,14,14,0,0,0,.57,4.14,8.54,8.54,0,0,0,1.63,3.07,7.06,7.06,0,0,0,2.42,1.83,7.22,7.22,0,0,0,9.63-3.67A12.45,12.45,0,0,0,279,113.7Z"/><path class="cls-2" d="M294.46,103.18v19.56h11a2.91,2.91,0,0,1,2,.64,2.08,2.08,0,0,1,.7,1.61,2,2,0,0,1-.7,1.6,3,3,0,0,1-2,.62H292.35a2.85,2.85,0,0,1-3.34-3.34V103.18a3.59,3.59,0,0,1,.75-2.48,2.48,2.48,0,0,1,1.95-.82,2.58,2.58,0,0,1,2,.82A3.55,3.55,0,0,1,294.46,103.18Z"/><path class="cls-2" d="M310,116.1V103.18a3.64,3.64,0,0,1,.74-2.48,2.52,2.52,0,0,1,2-.82,2.54,2.54,0,0,1,2,.82,3.59,3.59,0,0,1,.75,2.48v13.21a12,12,0,0,0,.5,3.77,4.37,4.37,0,0,0,1.79,2.35,6.6,6.6,0,0,0,3.59.83q3.19,0,4.51-1.7a8.27,8.27,0,0,0,1.32-5.14V103.18a3.6,3.6,0,0,1,.73-2.48,2.49,2.49,0,0,1,2-.82,2.58,2.58,0,0,1,2,.82,3.51,3.51,0,0,1,.76,2.48V116.1a19.09,19.09,0,0,1-.61,5.26,8.05,8.05,0,0,1-2.32,3.7,8.92,8.92,0,0,1-3.41,2,14.8,14.8,0,0,1-4.55.63,19,19,0,0,1-5.33-.67,8.63,8.63,0,0,1-3.65-2.07,8.42,8.42,0,0,1-2.07-3.6A18.24,18.24,0,0,1,310,116.1Z"/><path class="cls-2" d="M355.89,104.83H350v19.52a3.59,3.59,0,0,1-.75,2.5,2.73,2.73,0,0,1-3.91,0,3.55,3.55,0,0,1-.76-2.49V104.83h-5.94a3,3,0,0,1-2.07-.62,2.06,2.06,0,0,1-.68-1.62,2.08,2.08,0,0,1,.71-1.65,3.07,3.07,0,0,1,2-.6h17.3a3.08,3.08,0,0,1,2.1.62,2.1,2.1,0,0,1,.69,1.63,2,2,0,0,1-.7,1.62A3.07,3.07,0,0,1,355.89,104.83Z"/><path class="cls-2" d="M362.12,124.35V103.18a3.54,3.54,0,0,1,.76-2.48,2.49,2.49,0,0,1,1.94-.82,2.58,2.58,0,0,1,2,.82,3.55,3.55,0,0,1,.76,2.48v21.17a3.6,3.6,0,0,1-.76,2.49,2.59,2.59,0,0,1-2,.83,2.48,2.48,0,0,1-1.93-.84A3.54,3.54,0,0,1,362.12,124.35Z"/><path class="cls-2" d="M385.47,99.88a14.26,14.26,0,0,1,7.18,1.7,11,11,0,0,1,4.54,4.82,16.5,16.5,0,0,1,1.54,7.34,18,18,0,0,1-.85,5.66,12.17,12.17,0,0,1-2.53,4.42,11.06,11.06,0,0,1-4.14,2.86,15,15,0,0,1-5.63,1,14.77,14.77,0,0,1-5.64-1,11.27,11.27,0,0,1-4.16-2.87,12.3,12.3,0,0,1-2.52-4.45,18,18,0,0,1-.85-5.63,17.18,17.18,0,0,1,.89-5.68,12.15,12.15,0,0,1,2.57-4.4,11,11,0,0,1,4.11-2.78A14.77,14.77,0,0,1,385.47,99.88Zm7.74,13.82a12.66,12.66,0,0,0-.95-5.11,7.14,7.14,0,0,0-2.73-3.28,7.47,7.47,0,0,0-4.06-1.1,7.33,7.33,0,0,0-3,.61,6.51,6.51,0,0,0-2.38,1.79,8.56,8.56,0,0,0-1.58,3,13.76,13.76,0,0,0-.58,4.1,14,14,0,0,0,.58,4.14,8.54,8.54,0,0,0,1.63,3.07,7,7,0,0,0,2.42,1.83,7.21,7.21,0,0,0,9.62-3.67A12.45,12.45,0,0,0,393.21,113.7Z"/><path class="cls-2" d="M410.47,103.14,420.94,119V103a3.49,3.49,0,0,1,.67-2.34,2.25,2.25,0,0,1,1.8-.78,2.34,2.34,0,0,1,1.86.78,3.49,3.49,0,0,1,.67,2.34v21.13c0,2.36-1,3.54-2.93,3.54a3.66,3.66,0,0,1-1.32-.22,3.4,3.4,0,0,1-1.1-.66,6.67,6.67,0,0,1-.95-1.08c-.29-.41-.59-.82-.88-1.25l-10.21-15.65v15.74a3.35,3.35,0,0,1-.72,2.33,2.36,2.36,0,0,1-1.83.79,2.33,2.33,0,0,1-1.85-.8,3.46,3.46,0,0,1-.7-2.32V103.82a5.74,5.74,0,0,1,.3-2.07,2.93,2.93,0,0,1,1.15-1.35,3.14,3.14,0,0,1,1.74-.52,3,3,0,0,1,1.26.24,2.94,2.94,0,0,1,.91.64,6.27,6.27,0,0,1,.81,1C409.9,102.23,410.18,102.68,410.47,103.14Z"/><path class="cls-2" d="M452.32,119.14a7.85,7.85,0,0,1-1.26,4.38,8.39,8.39,0,0,1-3.67,3,13.86,13.86,0,0,1-5.74,1.1,12.92,12.92,0,0,1-6.56-1.51,8.74,8.74,0,0,1-3-2.88,6.61,6.61,0,0,1-1.14-3.51,2.36,2.36,0,0,1,2.43-2.4,2.06,2.06,0,0,1,1.46.55,4.23,4.23,0,0,1,1,1.63,10.62,10.62,0,0,0,1.11,2.14,4.35,4.35,0,0,0,1.67,1.42,6.23,6.23,0,0,0,2.84.56,6.39,6.39,0,0,0,3.93-1.13,3.39,3.39,0,0,0,1.52-2.81,2.94,2.94,0,0,0-.82-2.17,5.22,5.22,0,0,0-2.11-1.28q-1.29-.44-3.45-.93a24.84,24.84,0,0,1-4.85-1.59,7.89,7.89,0,0,1-3.1-2.47,6.45,6.45,0,0,1-1.14-3.9,6.68,6.68,0,0,1,1.21-3.94,7.57,7.57,0,0,1,3.5-2.64,14.27,14.27,0,0,1,5.39-.93,13.34,13.34,0,0,1,4.28.61,9,9,0,0,1,3,1.64,6.77,6.77,0,0,1,1.75,2.13,5,5,0,0,1,.54,2.18,2.56,2.56,0,0,1-.68,1.75,2.2,2.2,0,0,1-1.72.78,2,2,0,0,1-1.42-.47,6.38,6.38,0,0,1-1.05-1.53,7.05,7.05,0,0,0-1.76-2.37,5.12,5.12,0,0,0-3.3-.85,5.77,5.77,0,0,0-3.4.92,2.7,2.7,0,0,0-1.29,2.23,2.26,2.26,0,0,0,.44,1.39,3.61,3.61,0,0,0,1.21,1,8.1,8.1,0,0,0,1.56.66c.52.16,1.39.39,2.6.7a38.88,38.88,0,0,1,4.11,1.17,12.6,12.6,0,0,1,3.14,1.56,6.33,6.33,0,0,1,2,2.32A7.31,7.31,0,0,1,452.32,119.14Z"/></g></g></svg>