<svg xmlns="http://www.w3.org/2000/svg" viewBox="0 0 300.96 187.92"><defs><style>.cls-1{fill:#ffc641;}.cls-2{fill:#fff;}</style></defs><title>Recurso 1</title><g id="Capa_2" data-name="Capa 2"><g id="Capa_1-2" data-name="Capa 1"><polygon class="cls-1" points="9.24 100.07 2.5 93.18 97.03 0 139.54 46.61 159.45 26.51 226.84 93.18 220.09 100.07 159.55 40.16 100.3 100.03 93.46 93.23 132.75 53.51 96.69 13.88 9.24 100.07"/><polygon class="cls-1" points="284.64 99.98 212.04 25.64 181.53 55.24 174.78 48.35 212.19 12 291.53 93.28 284.64 99.98"/><path class="cls-2" d="M1.43,113.9H29.1V121H11.78v5.31H27.85v6.81H11.78v6.59H29.6v7.57H1.43Z"/><path class="cls-2" d="M57.41,133.64l9,2.73a16.79,16.79,0,0,1-2.87,6.36,12.46,12.46,0,0,1-4.87,3.86,18.31,18.31,0,0,1-7.4,1.3,21.42,21.42,0,0,1-8.9-1.59,14.12,14.12,0,0,1-6-5.57,18.87,18.87,0,0,1-2.5-10.2q0-8.3,4.41-12.75t12.48-4.45q6.3,0,9.92,2.55a15,15,0,0,1,5.37,7.85l-9.12,2a7.89,7.89,0,0,0-1-2.23,5.87,5.87,0,0,0-2.12-1.82,6.51,6.51,0,0,0-8.18,2.18c-.94,1.4-1.42,3.59-1.42,6.58,0,3.7.57,6.24,1.69,7.62a5.81,5.81,0,0,0,4.74,2.06,5.75,5.75,0,0,0,4.48-1.67A10.34,10.34,0,0,0,57.41,133.64Z"/><path class="cls-2" d="M70.17,130.63q0-8.17,4.56-12.74t12.7-4.56q8.34,0,12.85,4.48t4.52,12.55a20.45,20.45,0,0,1-2,9.6,14,14,0,0,1-5.69,5.84,18.83,18.83,0,0,1-9.29,2.09,21.24,21.24,0,0,1-9.36-1.81,14.07,14.07,0,0,1-6-5.69A18.88,18.88,0,0,1,70.17,130.63Zm10.33.05q0,5.06,1.88,7.27a7.12,7.12,0,0,0,10.27,0q1.81-2.16,1.82-7.77,0-4.71-1.9-6.89a6.51,6.51,0,0,0-5.16-2.18,6.28,6.28,0,0,0-5,2.21Q80.5,125.57,80.5,130.68Z"/><path class="cls-2" d="M123.58,113.9H155v8.25H144.43v25.17H134.11V122.15H123.58Z"/><path class="cls-2" d="M159.61,113.9h27.67V121H170v5.31H186v6.81H170v6.59h17.82v7.57H159.61Z"/><path class="cls-2" d="M193.48,147.32V113.9h17.21a25,25,0,0,1,7.32.82,7.86,7.86,0,0,1,4.08,3,9.44,9.44,0,0,1-2.9,13.49,12.53,12.53,0,0,1-3.63,1.32,10.27,10.27,0,0,1,2.69,1.23,10.16,10.16,0,0,1,1.65,1.76,13.07,13.07,0,0,1,1.45,2.07l5,9.69H214.68l-5.52-10.22a7.68,7.68,0,0,0-1.87-2.57,4.29,4.29,0,0,0-2.53-.78h-.91v13.57Zm10.37-19.88h4.36a15.06,15.06,0,0,0,2.73-.46,2.71,2.71,0,0,0,1.68-1,3.39,3.39,0,0,0-.38-4.43c-.68-.57-2-.86-3.85-.86h-4.54Z"/><path class="cls-2" d="M229.79,147.32V113.9H247a25,25,0,0,1,7.32.82,7.86,7.86,0,0,1,4.08,3,9.44,9.44,0,0,1-2.9,13.49,12.53,12.53,0,0,1-3.63,1.32,10.27,10.27,0,0,1,2.69,1.23,10.16,10.16,0,0,1,1.65,1.76,13.07,13.07,0,0,1,1.45,2.07l5,9.69H251l-5.52-10.22a7.68,7.68,0,0,0-1.87-2.57,4.29,4.29,0,0,0-2.53-.78h-.91v13.57Zm10.37-19.88h4.36a15.06,15.06,0,0,0,2.73-.46,2.74,2.74,0,0,0,1.68-1,3.39,3.39,0,0,0-.38-4.43c-.68-.57-2-.86-3.85-.86h-4.54Z"/><path class="cls-2" d="M286.51,141.8H274.78l-1.63,5.52H262.61l12.56-33.42h11.26L299,147.32H288.18Zm-2.15-7.23-3.68-12-3.65,12Z"/><path class="cls-2" d="M168.54,182.21V163h3.92v16h9.74v3.27Z"/><path class="cls-2" d="M197.67,175a7.6,7.6,0,0,1,.91-3.59,6.31,6.31,0,0,1,2.59-2.65,7.7,7.7,0,0,1,3.74-.91,7,7,0,0,1,5.23,2.07,7.79,7.79,0,0,1,0,10.53,7,7,0,0,1-5.18,2.1,8.08,8.08,0,0,1-3.69-.88,6,6,0,0,1-2.67-2.56A8.49,8.49,0,0,1,197.67,175Zm3.81.2a4.61,4.61,0,0,0,1,3.2,3.23,3.23,0,0,0,4.89,0,4.71,4.71,0,0,0,1-3.23,4.64,4.64,0,0,0-1-3.18,3.25,3.25,0,0,0-4.89,0A4.64,4.64,0,0,0,201.48,175.18Z"/><path class="cls-2" d="M241.55,182.21H238.1v-2.07a5.52,5.52,0,0,1-2,1.8,5.22,5.22,0,0,1-2.36.59,5.34,5.34,0,0,1-4.15-2,9.53,9.53,0,0,1-.05-10.88,5.48,5.48,0,0,1,4.25-1.86,5.25,5.25,0,0,1,4.08,2v-7h3.72Zm-9.93-7.34a6.51,6.51,0,0,0,.62,3.26,2.82,2.82,0,0,0,2.52,1.46,2.75,2.75,0,0,0,2.18-1.09,5,5,0,0,0,.91-3.27,5.54,5.54,0,0,0-.88-3.49,2.87,2.87,0,0,0-4.45,0A4.72,4.72,0,0,0,231.62,174.87Z"/><path class="cls-2" d="M258.44,183.14l4.25.51a1.41,1.41,0,0,0,.49,1,2.76,2.76,0,0,0,1.67.4,4.31,4.31,0,0,0,2.18-.44,1.75,1.75,0,0,0,.74-.94,5.52,5.52,0,0,0,.17-1.71v-2a5,5,0,0,1-4.21,2.28,5.19,5.19,0,0,1-4.49-2.4A8.17,8.17,0,0,1,258,175.1a7.71,7.71,0,0,1,1.7-5.4,5.46,5.46,0,0,1,4.23-1.87,5.14,5.14,0,0,1,4.3,2.29v-2h3.49v12.62a12.29,12.29,0,0,1-.42,3.72,4.52,4.52,0,0,1-1.15,1.93,5,5,0,0,1-2,1.1,10.54,10.54,0,0,1-3.13.4q-3.57,0-5.07-1.23a3.83,3.83,0,0,1-1.5-3.1C258.42,183.46,258.43,183.31,258.44,183.14Zm3.32-8.25a5,5,0,0,0,.87,3.27,2.66,2.66,0,0,0,2.14,1,3,3,0,0,0,2.3-1.06A4.64,4.64,0,0,0,268,175a4.9,4.9,0,0,0-.9-3.24,2.85,2.85,0,0,0-2.28-1.06,2.72,2.72,0,0,0-2.2,1A4.86,4.86,0,0,0,261.76,174.89Z"/><path class="cls-2" d="M297.05,177.73l3.71.63a6.08,6.08,0,0,1-2.26,3.1,6.63,6.63,0,0,1-3.86,1.07,6.29,6.29,0,0,1-5.43-2.4,8,8,0,0,1-1.39-4.85,7.74,7.74,0,0,1,1.83-5.47,6,6,0,0,1,4.62-2,6.24,6.24,0,0,1,5,2.07Q301,172,301,176.25h-9.33a3.83,3.83,0,0,0,.9,2.58,2.84,2.84,0,0,0,2.15.92,2.28,2.28,0,0,0,1.47-.48A2.91,2.91,0,0,0,297.05,177.73Zm.21-3.76a3.54,3.54,0,0,0-.83-2.45,2.7,2.7,0,0,0-3.95,0,3.43,3.43,0,0,0-.78,2.41Z"/><rect class="cls-2" y="170.73" width="149" height="3"/></g></g></svg>