<svg xmlns="http://www.w3.org/2000/svg" viewBox="0 0 152.14 11.1"><defs><style>.cls-1{fill:#36f;}.cls-2{fill:#fff;}.cls-3{fill:#fc0;}</style></defs><g id="Capa_2" data-name="Capa 2"><g id="Capa_1-2" data-name="Capa 1"><path class="cls-1" d="M6,5.22l2.33.7a4.43,4.43,0,0,1-.74,1.64,3.24,3.24,0,0,1-1.25,1,4.78,4.78,0,0,1-1.91.33,5.52,5.52,0,0,1-2.28-.4A3.63,3.63,0,0,1,.64,7,4.82,4.82,0,0,1,0,4.42,4.5,4.5,0,0,1,1.13,1.14,4.34,4.34,0,0,1,4.34,0,4.34,4.34,0,0,1,6.89.66a3.82,3.82,0,0,1,1.38,2l-2.34.52a1.92,1.92,0,0,0-.26-.57,1.61,1.61,0,0,0-.54-.47A1.58,1.58,0,0,0,4.41,2,1.56,1.56,0,0,0,3,2.71,3.1,3.1,0,0,0,2.66,4.4a3.2,3.2,0,0,0,.43,2,1.5,1.5,0,0,0,1.22.53,1.46,1.46,0,0,0,1.15-.43A2.65,2.65,0,0,0,6,5.22Z"/><path class="cls-1" d="M9.19,5.64a3.09,3.09,0,0,1,1-2.34,3.58,3.58,0,0,1,2.6-.93,3.52,3.52,0,0,1,2.82,1.09,3.1,3.1,0,0,1,.77,2.15A3.14,3.14,0,0,1,15.39,8a3.65,3.65,0,0,1-2.63.92,3.76,3.76,0,0,1-2.43-.76A3.07,3.07,0,0,1,9.19,5.64Zm2.39,0a1.92,1.92,0,0,0,.34,1.23,1.1,1.1,0,0,0,.85.4,1.06,1.06,0,0,0,.84-.4A1.94,1.94,0,0,0,14,5.61a1.83,1.83,0,0,0-.34-1.2,1.05,1.05,0,0,0-.82-.4,1.1,1.1,0,0,0-.87.41A1.87,1.87,0,0,0,11.58,5.64Z"/><path class="cls-1" d="M17.07,7l2.37-.22a1.09,1.09,0,0,0,.41.6,1.46,1.46,0,0,0,1.44,0A.47.47,0,0,0,21.5,7a.43.43,0,0,0-.27-.4,4.73,4.73,0,0,0-1-.25,10.62,10.62,0,0,1-1.72-.4,1.83,1.83,0,0,1-.82-.62,1.64,1.64,0,0,1-.33-1,1.62,1.62,0,0,1,.36-1.06,2.18,2.18,0,0,1,1-.67,5.45,5.45,0,0,1,1.69-.22A5.91,5.91,0,0,1,22,2.54a2.16,2.16,0,0,1,.88.53,2.62,2.62,0,0,1,.59,1l-2.26.22a.8.8,0,0,0-.29-.44,1.26,1.26,0,0,0-.68-.19.93.93,0,0,0-.59.15.43.43,0,0,0-.19.34.37.37,0,0,0,.24.35,3.69,3.69,0,0,0,1,.21,7.1,7.1,0,0,1,1.77.37,2,2,0,0,1,.89.69,1.72,1.72,0,0,1,.3,1,1.84,1.84,0,0,1-.32,1,2.28,2.28,0,0,1-1,.82,4.9,4.9,0,0,1-1.9.3A4.56,4.56,0,0,1,18,8.39,2.15,2.15,0,0,1,17.07,7Z"/><path class="cls-1" d="M24.84,2.51h2.22v.91a3.19,3.19,0,0,1,1-.81,2.64,2.64,0,0,1,1.18-.24,2.24,2.24,0,0,1,1.18.27,1.93,1.93,0,0,1,.71.78,3.67,3.67,0,0,1,1-.83,2.76,2.76,0,0,1,1.14-.22,2,2,0,0,1,1.56.6,2.59,2.59,0,0,1,.57,1.86V8.74H33V5.19a1,1,0,0,0-.17-.63.73.73,0,0,0-.59-.32.83.83,0,0,0-.68.31,1.51,1.51,0,0,0-.26,1V8.74H28.92V5.31a2.38,2.38,0,0,0,0-.56.86.86,0,0,0-.27-.38.74.74,0,0,0-.44-.14.86.86,0,0,0-.68.31,1.62,1.62,0,0,0-.26,1V8.74H24.84Z"/><path class="cls-1" d="M36.53,5.64a3.09,3.09,0,0,1,1-2.34,3.56,3.56,0,0,1,2.59-.93,3.56,3.56,0,0,1,2.83,1.09,3.15,3.15,0,0,1,.77,2.15,3.11,3.11,0,0,1-1,2.35,3.63,3.63,0,0,1-2.63.92,3.76,3.76,0,0,1-2.43-.76A3.09,3.09,0,0,1,36.53,5.64Zm2.39,0a1.92,1.92,0,0,0,.33,1.23,1.1,1.1,0,0,0,.85.4,1.07,1.07,0,0,0,.85-.4,1.94,1.94,0,0,0,.33-1.26A1.83,1.83,0,0,0,41,4.41a1.08,1.08,0,0,0-1.69,0A1.81,1.81,0,0,0,38.92,5.64Z"/><path class="cls-2" d="M45,.15h7.11V2H47.64V3.35h4.13V5.1H47.64V6.79h4.58v2H45Z"/><path class="cls-2" d="M53,2.51h2.83l1,1.74,1.16-1.74h2.63l-2.13,3,2.28,3.26H57.93l-1.16-2-1.35,2H52.84L55.1,5.48Z"/><path class="cls-2" d="M61.51,11.1V2.51h2.23v.92a3.08,3.08,0,0,1,.85-.78,2.36,2.36,0,0,1,1.15-.28,2.23,2.23,0,0,1,1.93,1,3.9,3.9,0,0,1,.69,2.36,3.4,3.4,0,0,1-.75,2.37,2.44,2.44,0,0,1-1.88.82,2.66,2.66,0,0,1-1-.19,2.4,2.4,0,0,1-.82-.56v3ZM63.9,5.64a1.64,1.64,0,0,0,.31,1.1A1,1,0,0,0,65,7.1a.88.88,0,0,0,.7-.35A1.83,1.83,0,0,0,66,5.59a1.78,1.78,0,0,0-.29-1.11A.91.91,0,0,0,65,4.12a1,1,0,0,0-.76.36A1.81,1.81,0,0,0,63.9,5.64Z"/><path class="cls-2" d="M76.41,6.22H71.62a1.55,1.55,0,0,0,.32.85,1.13,1.13,0,0,0,.9.41,1.38,1.38,0,0,0,.67-.18,1.59,1.59,0,0,0,.41-.39l2.35.21A3.33,3.33,0,0,1,75,8.47a4.75,4.75,0,0,1-2.18.41,4.5,4.5,0,0,1-2-.35,2.82,2.82,0,0,1-1.17-1.11,3.24,3.24,0,0,1-.47-1.78,3.13,3.13,0,0,1,.93-2.36,3.55,3.55,0,0,1,2.58-.91,4.54,4.54,0,0,1,2.11.41A2.72,2.72,0,0,1,76,4a4.28,4.28,0,0,1,.41,2ZM74,5.07a1.62,1.62,0,0,0-.37-1,1.08,1.08,0,0,0-.8-.29,1.07,1.07,0,0,0-.9.45,1.56,1.56,0,0,0-.28.83Z"/><path class="cls-2" d="M84.05.15V8.74H81.82V7.82a3,3,0,0,1-.86.79,2.4,2.4,0,0,1-1.14.27,2.24,2.24,0,0,1-1.95-1,4.07,4.07,0,0,1-.67-2.35,3.45,3.45,0,0,1,.74-2.37,2.47,2.47,0,0,1,1.89-.82,2.71,2.71,0,0,1,1,.19,2.32,2.32,0,0,1,.8.56v-3ZM81.66,5.61a1.64,1.64,0,0,0-.31-1.1,1,1,0,0,0-.78-.36.88.88,0,0,0-.7.35,1.85,1.85,0,0,0-.28,1.16,1.73,1.73,0,0,0,.29,1.12.9.9,0,0,0,.72.35,1,1,0,0,0,.76-.36A1.77,1.77,0,0,0,81.66,5.61Z"/><path class="cls-2" d="M85.59.15H88V1.77H85.59Zm0,2.36H88V8.74H85.59Z"/><path class="cls-2" d="M92.38.15V2.51h1.31V4.26H92.38v2.2a1.07,1.07,0,0,0,.08.53.43.43,0,0,0,.41.2A2.6,2.6,0,0,0,93.6,7l.18,1.64a7.72,7.72,0,0,1-1.65.2,2.94,2.94,0,0,1-1.32-.23A1.4,1.4,0,0,1,90.19,8,4.23,4.23,0,0,1,90,6.45V4.26h-.88V2.51H90V1.37Z"/><path class="cls-2" d="M94.92.15H97.3V1.77H94.92Zm0,2.36H97.3V8.74H94.92Z"/><path class="cls-2" d="M98.53,5.64a3.09,3.09,0,0,1,1-2.34,3.58,3.58,0,0,1,2.6-.93,3.53,3.53,0,0,1,2.82,1.09,3.15,3.15,0,0,1,.77,2.15,3.14,3.14,0,0,1-1,2.35,3.67,3.67,0,0,1-2.64.92,3.73,3.73,0,0,1-2.42-.76A3.07,3.07,0,0,1,98.53,5.64Zm2.39,0a1.86,1.86,0,0,0,.34,1.23,1.08,1.08,0,0,0,.85.4,1.06,1.06,0,0,0,.84-.4,1.94,1.94,0,0,0,.33-1.26,1.83,1.83,0,0,0-.33-1.2,1.06,1.06,0,0,0-.83-.4,1.09,1.09,0,0,0-.86.41A1.87,1.87,0,0,0,100.92,5.64Z"/><path class="cls-2" d="M106.83,2.51h2.22v1a3.25,3.25,0,0,1,1-.89,2.61,2.61,0,0,1,1.24-.27,2,2,0,0,1,1.55.59,2.57,2.57,0,0,1,.56,1.82v4H111V5.31a1.18,1.18,0,0,0-.22-.82.73.73,0,0,0-.6-.25.88.88,0,0,0-.71.33,1.91,1.91,0,0,0-.27,1.18v3h-2.38Z"/><path class="cls-2" d="M114.41,7l2.37-.22a1.15,1.15,0,0,0,.41.6,1.46,1.46,0,0,0,1.44,0,.47.47,0,0,0,.21-.38.43.43,0,0,0-.27-.4,4.73,4.73,0,0,0-1-.25,10.62,10.62,0,0,1-1.72-.4,1.89,1.89,0,0,1-.82-.62,1.64,1.64,0,0,1-.33-1A1.62,1.62,0,0,1,115,3.26a2.15,2.15,0,0,1,1-.67,5.34,5.34,0,0,1,1.68-.22,5.91,5.91,0,0,1,1.64.17,2.27,2.27,0,0,1,.89.53,2.75,2.75,0,0,1,.58,1l-2.26.22a.75.75,0,0,0-.29-.44,1.24,1.24,0,0,0-.68-.19.93.93,0,0,0-.59.15.42.42,0,0,0-.18.34.36.36,0,0,0,.23.35,3.69,3.69,0,0,0,1,.21,7.1,7.1,0,0,1,1.77.37,2,2,0,0,1,.89.69,1.73,1.73,0,0,1,.31,1,1.85,1.85,0,0,1-.33,1,2.28,2.28,0,0,1-1,.82,4.9,4.9,0,0,1-1.9.3,4.56,4.56,0,0,1-2.43-.49A2.19,2.19,0,0,1,114.41,7Z"/><path class="cls-3" d="M122,7.61a1.23,1.23,0,1,1,2.46,0,1.23,1.23,0,1,1-2.46,0Z"/><path class="cls-2" d="M130.2,6.3l2.27.26a3.13,3.13,0,0,1-.62,1.22,2.79,2.79,0,0,1-1.09.81,4.35,4.35,0,0,1-1.69.29,5.94,5.94,0,0,1-1.65-.19,3,3,0,0,1-1.14-.59,3.17,3.17,0,0,1-.74-1,3.43,3.43,0,0,1-.27-1.48,3.48,3.48,0,0,1,.33-1.6,2.92,2.92,0,0,1,.66-.84,3.08,3.08,0,0,1,.85-.55,4.79,4.79,0,0,1,1.79-.29,4.06,4.06,0,0,1,2.32.55,2.84,2.84,0,0,1,1.12,1.59l-2.24.3a1,1,0,0,0-.38-.6A1.3,1.3,0,0,0,129,4a1.2,1.2,0,0,0-1,.42,2,2,0,0,0-.37,1.29A1.68,1.68,0,0,0,128,6.88a1.21,1.21,0,0,0,.92.4,1.26,1.26,0,0,0,.79-.24A1.5,1.5,0,0,0,130.2,6.3Z"/><path class="cls-2" d="M133.27,5.64a3.09,3.09,0,0,1,1-2.34,3.58,3.58,0,0,1,2.6-.93,3.55,3.55,0,0,1,2.82,1.09,3.15,3.15,0,0,1,.77,2.15A3.14,3.14,0,0,1,139.47,8a4.24,4.24,0,0,1-5.06.16A3.07,3.07,0,0,1,133.27,5.64Zm2.39,0A1.86,1.86,0,0,0,136,6.87a1.09,1.09,0,0,0,1.69,0A1.94,1.94,0,0,0,138,5.61a1.83,1.83,0,0,0-.33-1.2,1.08,1.08,0,0,0-1.69,0A1.81,1.81,0,0,0,135.66,5.64Z"/><path class="cls-2" d="M141.58,2.51h2.23v.91a3.05,3.05,0,0,1,1-.81A2.67,2.67,0,0,1,146,2.37a2.22,2.22,0,0,1,1.18.27,1.87,1.87,0,0,1,.71.78,3.84,3.84,0,0,1,1-.83A2.76,2.76,0,0,1,150,2.37a2,2,0,0,1,1.56.6,2.63,2.63,0,0,1,.56,1.86V8.74h-2.39V5.19a1,1,0,0,0-.16-.63.73.73,0,0,0-.6-.32.84.84,0,0,0-.68.31,1.52,1.52,0,0,0-.25,1V8.74h-2.39V5.31a2.24,2.24,0,0,0,0-.56.84.84,0,0,0-.26-.38.77.77,0,0,0-.44-.14.84.84,0,0,0-.68.31,1.56,1.56,0,0,0-.27,1V8.74h-2.39Z"/></g></g></svg>