<svg xmlns="http://www.w3.org/2000/svg" viewBox="0 0 47.17 15.72"><defs><style>.cls-1{fill:#fc0;}.cls-2{fill:#fff;}</style></defs><g id="Capa_2" data-name="Capa 2"><g id="Capa_1-2" data-name="Capa 1"><path class="cls-1" d="M6,5.22l2.33.7a4.43,4.43,0,0,1-.74,1.64,3.24,3.24,0,0,1-1.25,1,4.78,4.78,0,0,1-1.91.33,5.52,5.52,0,0,1-2.28-.4A3.63,3.63,0,0,1,.64,7,4.82,4.82,0,0,1,0,4.42,4.5,4.5,0,0,1,1.13,1.14,4.34,4.34,0,0,1,4.34,0,4.34,4.34,0,0,1,6.89.66a3.82,3.82,0,0,1,1.38,2l-2.34.52a1.92,1.92,0,0,0-.26-.57,1.61,1.61,0,0,0-.54-.47A1.58,1.58,0,0,0,4.41,2,1.56,1.56,0,0,0,3,2.71,3.1,3.1,0,0,0,2.66,4.4a3.2,3.2,0,0,0,.43,2,1.5,1.5,0,0,0,1.22.53,1.46,1.46,0,0,0,1.15-.43A2.65,2.65,0,0,0,6,5.22Z"/><path class="cls-1" d="M9.19,5.64a3.09,3.09,0,0,1,1-2.34,3.58,3.58,0,0,1,2.6-.93,3.52,3.52,0,0,1,2.82,1.09,3.1,3.1,0,0,1,.77,2.15A3.14,3.14,0,0,1,15.39,8a3.65,3.65,0,0,1-2.63.92,3.76,3.76,0,0,1-2.43-.76A3.07,3.07,0,0,1,9.19,5.64Zm2.39,0a1.92,1.92,0,0,0,.34,1.23,1.1,1.1,0,0,0,.85.4,1.06,1.06,0,0,0,.84-.4A1.94,1.94,0,0,0,14,5.61a1.83,1.83,0,0,0-.34-1.2,1.05,1.05,0,0,0-.82-.4,1.1,1.1,0,0,0-.87.41A1.87,1.87,0,0,0,11.58,5.64Z"/><path class="cls-1" d="M17.07,7l2.37-.22a1.09,1.09,0,0,0,.41.6,1.46,1.46,0,0,0,1.44,0A.47.47,0,0,0,21.5,7a.43.43,0,0,0-.27-.4,4.73,4.73,0,0,0-1-.25,10.62,10.62,0,0,1-1.72-.4,1.83,1.83,0,0,1-.82-.62,1.64,1.64,0,0,1-.33-1,1.62,1.62,0,0,1,.36-1.06,2.18,2.18,0,0,1,1-.67,5.45,5.45,0,0,1,1.69-.22A5.91,5.91,0,0,1,22,2.54a2.16,2.16,0,0,1,.88.53,2.62,2.62,0,0,1,.59,1l-2.26.22a.8.8,0,0,0-.29-.44,1.26,1.26,0,0,0-.68-.19.93.93,0,0,0-.59.15.43.43,0,0,0-.19.34.37.37,0,0,0,.24.35,3.69,3.69,0,0,0,1,.21,7.1,7.1,0,0,1,1.77.37,2,2,0,0,1,.89.69,1.72,1.72,0,0,1,.3,1,1.84,1.84,0,0,1-.32,1,2.28,2.28,0,0,1-1,.82,4.9,4.9,0,0,1-1.9.3A4.56,4.56,0,0,1,18,8.39,2.15,2.15,0,0,1,17.07,7Z"/><path class="cls-1" d="M24.84,2.51h2.22v.91a3.19,3.19,0,0,1,1-.81,2.64,2.64,0,0,1,1.18-.24,2.24,2.24,0,0,1,1.18.27,1.93,1.93,0,0,1,.71.78,3.67,3.67,0,0,1,1-.83,2.76,2.76,0,0,1,1.14-.22,2,2,0,0,1,1.56.6,2.59,2.59,0,0,1,.57,1.86V8.74H33V5.19a1,1,0,0,0-.17-.63.73.73,0,0,0-.59-.32.83.83,0,0,0-.68.31,1.51,1.51,0,0,0-.26,1V8.74H28.92V5.31a2.38,2.38,0,0,0,0-.56.86.86,0,0,0-.27-.38.74.74,0,0,0-.44-.14.86.86,0,0,0-.68.31,1.62,1.62,0,0,0-.26,1V8.74H24.84Z"/><path class="cls-1" d="M36.53,5.64a3.09,3.09,0,0,1,1-2.34,3.56,3.56,0,0,1,2.59-.93,3.56,3.56,0,0,1,2.83,1.09,3.15,3.15,0,0,1,.77,2.15,3.11,3.11,0,0,1-1,2.35,3.63,3.63,0,0,1-2.63.92,3.76,3.76,0,0,1-2.43-.76A3.09,3.09,0,0,1,36.53,5.64Zm2.39,0a1.92,1.92,0,0,0,.33,1.23,1.1,1.1,0,0,0,.85.4,1.07,1.07,0,0,0,.85-.4,1.94,1.94,0,0,0,.33-1.26A1.83,1.83,0,0,0,41,4.41a1.08,1.08,0,0,0-1.69,0A1.81,1.81,0,0,0,38.92,5.64Z"/><path class="cls-1" d="M45.17,14.76a.95.95,0,1,1,.94,1A.92.92,0,0,1,45.17,14.76Z"/><path class="cls-2" d="M46.38,10.82l.08-.83a.87.87,0,0,1,.37.22,1.09,1.09,0,0,1,.25.4,1.85,1.85,0,0,1,.09.62,2.62,2.62,0,0,1-.06.61,1.19,1.19,0,0,1-.18.41,1,1,0,0,1-.3.27.83.83,0,0,1-.45.1.91.91,0,0,1-.49-.12.85.85,0,0,1-.26-.24.86.86,0,0,1-.17-.31,2,2,0,0,1-.09-.66,1.66,1.66,0,0,1,.17-.85.91.91,0,0,1,.49-.41l.09.83a.3.3,0,0,0-.19.14.49.49,0,0,0-.06.27.48.48,0,0,0,.13.35.54.54,0,0,0,.4.13.45.45,0,0,0,.35-.13.45.45,0,0,0,.13-.34A.55.55,0,0,0,46.6,11,.48.48,0,0,0,46.38,10.82Z"/><path class="cls-2" d="M46.17,9.7a.88.88,0,0,1-.72-.36,1.45,1.45,0,0,1-.28-.95,1.45,1.45,0,0,1,.33-1,.87.87,0,0,1,.66-.28.9.9,0,0,1,.73.35,1.52,1.52,0,0,1,.28,1,1.51,1.51,0,0,1-.24.89A.87.87,0,0,1,46.17,9.7Zm0-.88a.52.52,0,0,0,.38-.12.45.45,0,0,0,.12-.31.41.41,0,0,0-.12-.31.66.66,0,0,0-.76,0,.41.41,0,0,0-.12.3.42.42,0,0,0,.13.32A.5.5,0,0,0,46.17,8.82Z"/><path class="cls-2" d="M45.21,6.65V5.84h.28a1.12,1.12,0,0,1-.25-.36,1.11,1.11,0,0,1-.07-.43,1,1,0,0,1,.08-.43.6.6,0,0,1,.24-.26A1.23,1.23,0,0,1,45.24,4a1,1,0,0,1-.07-.41A.86.86,0,0,1,45.35,3a.74.74,0,0,1,.57-.2h1.21v.87H46a.28.28,0,0,0-.2.06.3.3,0,0,0-.1.22.32.32,0,0,0,.1.25.41.41,0,0,0,.3.09h1v.88H46.07a.37.37,0,0,0-.17,0,.22.22,0,0,0-.12.09.29.29,0,0,0,0,.16.32.32,0,0,0,.1.25.39.39,0,0,0,.31.1h1v.87Z"/><path class="cls-2" d="M.38,15.44V10.73h3.5v.79H1.34v1.05H3.7v.79H1.34v1.28H4v.8Z"/><path class="cls-2" d="M4.3,15.44,5.91,13,4.45,10.73H5.56l.94,1.51.93-1.51h1.1L7.07,13l1.61,2.43H7.53l-1-1.63-1,1.63Z"/><path class="cls-2" d="M9.17,15.44V10.73h1.52a5.28,5.28,0,0,1,1.13.07,1.21,1.21,0,0,1,.68.46,1.46,1.46,0,0,1,.28.92,1.56,1.56,0,0,1-.16.72,1.33,1.33,0,0,1-.4.47,1.3,1.3,0,0,1-.5.22,4.85,4.85,0,0,1-1,.07h-.62v1.78Zm.95-3.92v1.34h.52a2.5,2.5,0,0,0,.75-.07.6.6,0,0,0,.3-.24.61.61,0,0,0,.11-.36.6.6,0,0,0-.16-.43.65.65,0,0,0-.38-.21,4.81,4.81,0,0,0-.68,0Z"/><path class="cls-2" d="M13.56,15.44V10.73h3.49v.79H14.51v1.05h2.36v.79H14.51v1.28h2.63v.8Z"/><path class="cls-2" d="M17.94,10.73h1.74a3.35,3.35,0,0,1,.9.09,1.53,1.53,0,0,1,.71.43,2,2,0,0,1,.45.76,3.59,3.59,0,0,1,.16,1.12,3,3,0,0,1-.15,1,2.19,2.19,0,0,1-.5.83,1.73,1.73,0,0,1-.67.38,3.11,3.11,0,0,1-.84.1h-1.8Zm1,.79v3.12h.71a2.66,2.66,0,0,0,.57,0,.85.85,0,0,0,.39-.2,1,1,0,0,0,.25-.45,3.31,3.31,0,0,0,.09-.87,2.93,2.93,0,0,0-.09-.83,1.19,1.19,0,0,0-.27-.46,1,1,0,0,0-.45-.22,4.12,4.12,0,0,0-.78-.05Z"/><path class="cls-2" d="M22.67,15.44V10.73h.95v4.71Z"/><path class="cls-2" d="M25.59,15.44V11.52h-1.4v-.79h3.75v.79h-1.4v3.92Z"/><path class="cls-2" d="M28.52,15.44V10.73h1v4.71Z"/><path class="cls-2" d="M30.19,13.11a3.09,3.09,0,0,1,.21-1.21,2.35,2.35,0,0,1,.44-.64,1.89,1.89,0,0,1,.61-.43,2.69,2.69,0,0,1,1-.18,2.19,2.19,0,0,1,1.66.64,2.47,2.47,0,0,1,.63,1.8,2.47,2.47,0,0,1-.62,1.78,2.2,2.2,0,0,1-1.66.65,2.24,2.24,0,0,1-1.67-.64A2.46,2.46,0,0,1,30.19,13.11Zm1,0a1.74,1.74,0,0,0,.37,1.21,1.26,1.26,0,0,0,1.87,0,1.84,1.84,0,0,0,.37-1.23,1.75,1.75,0,0,0-.36-1.21,1.32,1.32,0,0,0-1.89,0A1.8,1.8,0,0,0,31.17,13.08Z"/><path class="cls-2" d="M35.51,15.44V10.73h.93l1.93,3.14V10.73h.88v4.71h-1l-1.9-3.08v3.08Z"/><path class="cls-2" d="M40,13.9l.92-.09a1.16,1.16,0,0,0,.34.69,1,1,0,0,0,.69.22,1,1,0,0,0,.69-.2.57.57,0,0,0,.24-.45.48.48,0,0,0-.1-.29,1,1,0,0,0-.34-.2l-.77-.21a2.57,2.57,0,0,1-1.07-.46,1.23,1.23,0,0,1-.43-.95,1.17,1.17,0,0,1,.2-.67,1.29,1.29,0,0,1,.59-.48,2.32,2.32,0,0,1,.93-.16,2,2,0,0,1,1.33.38,1.36,1.36,0,0,1,.47,1l-1,0a.83.83,0,0,0-.26-.52,1,1,0,0,0-.6-.16,1.09,1.09,0,0,0-.65.17.36.36,0,0,0-.15.3.34.34,0,0,0,.14.28,2.5,2.5,0,0,0,.87.32,4.53,4.53,0,0,1,1,.34,1.31,1.31,0,0,1,.52.47,1.5,1.5,0,0,1,.19.76,1.35,1.35,0,0,1-.23.75,1.37,1.37,0,0,1-.63.53,2.81,2.81,0,0,1-1,.17,2.06,2.06,0,0,1-1.37-.41A1.8,1.8,0,0,1,40,13.9Z"/></g></g></svg>